<?xml version="1.0" encoding="UTF-8"?>
<svg version="1.1" xmlns="http://www.w3.org/2000/svg" width="1080" height="1080">
<path d="M0 0 C356.4 0 712.8 0 1080 0 C1080 356.4 1080 712.8 1080 1080 C723.6 1080 367.2 1080 0 1080 C0 723.6 0 367.2 0 0 Z " fill="#FEFEFE" transform="translate(0,0)"/>
<path d="M0 0 C8.88464887 0.20029804 17.87316075 4.88361514 25.25 9.5625 C37.29182872 16.44096588 53.47305102 17.40006908 67.0546875 18.96484375 C70.45144391 19.52282412 73.45173418 20.46125966 76.6875 21.625 C84.37006504 24.38126162 90.24957869 23.87368109 98.04296875 21.94921875 C103.2363814 20.92126272 108.22181176 21.15548355 113.3125 22.5 C117.92005382 23.04206516 120.38298683 22.60853641 124.125 20.0625 C130.53338395 16.11288836 138.04297968 16.67822997 145.34887695 16.62597656 C147.44106376 16.49175197 149.29174014 16.04360696 151.3125 15.5 C156.03715196 14.96727584 159.8486148 14.88791307 163.9375 17.5 C167.78688459 19.78111679 169.91646314 19.93098401 174.3125 19.5 C174.9725 19.17 175.6325 18.84 176.3125 18.5 C181.82749684 17.92552116 185.47171544 19.18522939 190.515625 21.36328125 C193.5335069 22.58982264 196.56190852 23.52150728 199.6875 24.4375 C219.02217495 30.323935 232.97533043 39.99467363 245.625 55.8125 C252.72773737 64.69092172 260.94831235 72.80939139 269.7265625 80.03515625 C272.20596696 82.32524658 274.06601918 84.27869864 274.74609375 87.6484375 C274.75571856 93.13458164 273.87245135 96.10241303 270.3125 100.5 C267.84942404 104.19461394 268.116211 106.16267393 268.0625 110.5625 C267.81467459 116.6827731 266.59838627 120.43781618 263.0625 125.41015625 C260.05833693 130.71438167 258.54133228 136.61809644 256.84912109 142.45361328 C256.44040771 143.79335205 256.44040771 143.79335205 256.0234375 145.16015625 C255.67224854 146.37650757 255.67224854 146.37650757 255.31396484 147.61743164 C254.3125 149.5 254.3125 149.5 252.30444336 150.33740234 C250.3125 150.5 250.3125 150.5 248.73046875 149.44140625 C246.88514502 146.91488864 245.79790113 144.33629168 244.625 141.4375 C243.96951172 139.84228516 243.96951172 139.84228516 243.30078125 138.21484375 C242.3125 135.5 242.3125 135.5 242.3125 133.5 C239.19464887 134.14644661 239.19464887 134.14644661 238.3125 136.5 C238.10783366 138.47559868 237.94700941 140.45588811 237.8125 142.4375 C237.5884354 145.73044938 237.35862306 148.36163082 236.3125 151.5 C234.4375 152.375 234.4375 152.375 232.3125 152.5 C229.5383649 150.32586867 228.70077521 148.21086273 227.75 144.875 C227.11114318 142.51593777 227.11114318 142.51593777 226.3125 140.5 C225.6525 140.17 224.9925 139.84 224.3125 139.5 C224.13074219 140.24765625 223.94898438 140.9953125 223.76171875 141.765625 C223.38466797 143.24289063 223.38466797 143.24289063 223 144.75 C222.75636719 145.72453125 222.51273438 146.6990625 222.26171875 147.703125 C221.31597644 150.48975665 220.20541287 152.27304368 218.3125 154.5 C216.5078125 154.4375 216.5078125 154.4375 214.3125 153.5 C213.08142422 151.1438741 212.10722359 148.97206128 211.1875 146.5 C209.72560179 141.71456501 209.72560179 141.71456501 206.3125 138.5 C206.11914062 139.25925781 205.92578125 140.01851562 205.7265625 140.80078125 C205.33597656 142.29158203 205.33597656 142.29158203 204.9375 143.8125 C204.55464844 145.29169922 204.55464844 145.29169922 204.1640625 146.80078125 C203.3125 149.5 203.3125 149.5 201.3125 152.5 C198.1875 152.6875 198.1875 152.6875 195.3125 152.5 C192.92176555 148.67482487 192.75283448 144.90334476 192.3125 140.5 C191.3225 140.17 190.3325 139.84 189.3125 139.5 C189.065 140.386875 188.8175 141.27375 188.5625 142.1875 C187.27315232 145.60427135 185.71269871 147.7797748 183.3125 150.5 C181.421875 149.8515625 181.421875 149.8515625 179.3125 148.5 C178.265625 145.8984375 178.265625 145.8984375 177.5625 142.875 C177.32015625 141.87210938 177.0778125 140.86921875 176.828125 139.8359375 C176.57289063 138.67964844 176.57289063 138.67964844 176.3125 137.5 C172.87390181 137.77912628 171.6196956 138.15239956 169.29296875 140.78515625 C168.70128906 141.70167969 168.10960937 142.61820313 167.5 143.5625 C166.89542969 144.48160156 166.29085937 145.40070313 165.66796875 146.34765625 C165.22066406 147.05792969 164.77335938 147.76820313 164.3125 148.5 C161.3125 147.5 161.3125 147.5 160.36328125 145.7578125 C159.99783203 144.70207031 159.99783203 144.70207031 159.625 143.625 C159.37363281 142.92632812 159.12226562 142.22765625 158.86328125 141.5078125 C158.3125 139.5 158.3125 139.5 158.3125 136.5 C154.24958603 137.85430466 153.2294276 140.22405478 150.91015625 143.6875 C149.08561549 145.75739465 148.00138448 146.12831834 145.3125 146.5 C143.42858215 143.23454239 142.81962033 140.21888239 142.3125 136.5 C141.84199219 136.933125 141.37148438 137.36625 140.88671875 137.8125 C140.26410156 138.369375 139.64148438 138.92625 139 139.5 C138.38511719 140.056875 137.77023437 140.61375 137.13671875 141.1875 C135.3125 142.5 135.3125 142.5 132.3125 142.5 C131.80634702 141.23160474 131.30780901 139.96016898 130.8125 138.6875 C130.39484375 137.62595703 130.39484375 137.62595703 129.96875 136.54296875 C129.3125 134.5 129.3125 134.5 129.3125 131.5 C128.3225 131.83 127.3325 132.16 126.3125 132.5 C126.3125 141.31888168 130.09855329 147.59429398 135.3125 154.5 C139.88878568 158.62559087 143.06670094 159.54578243 149.125 159.8125 C154.27009056 160.21591482 157.37410582 160.95544524 161.3125 164.5 C162.2096875 165.86125 162.2096875 165.86125 163.125 167.25 C165.02694585 169.71645764 165.02694585 169.71645764 167.34765625 169.60546875 C168.11980469 169.55003906 168.89195312 169.49460938 169.6875 169.4375 C173.91268152 169.1562785 173.91268152 169.1562785 175.84375 170.81640625 C176.2871875 171.37199219 176.730625 171.92757812 177.1875 172.5 C178.51805199 174.24733159 178.51805199 174.24733159 180.3125 175.5 C183.19154856 175.7020385 185.93123925 175.50040887 188.80859375 175.3125 C191.3125 175.5 191.3125 175.5 192.91015625 176.8125 C194 178.5 194 178.5 195.3125 181.5 C196.01375 181.355625 196.715 181.21125 197.4375 181.0625 C200.38806141 180.48521625 203.34520151 179.98304859 206.3125 179.5 C208.81548434 182.43828597 209.78180939 184.67902761 210.3125 188.5 C210.88097656 188.34273437 211.44945312 188.18546875 212.03515625 188.0234375 C215.81331381 187.15504451 219.47521947 186.84655006 223.3125 187.5 C224.116875 188.325 224.92125 189.15 225.75 190 C228.77575143 192.95195261 229.5569441 192.84098779 233.625 192.8125 C235.18892824 192.73259126 236.75247572 192.6363128 238.3125 192.5 C239.15704356 195.87817425 239.42094919 198.17465243 238.3125 201.5 C239.42625 201.2525 239.42625 201.2525 240.5625 201 C245.81659401 200.29945413 251.02001749 200.42292501 256.3125 200.5 C256.6425 201.16 256.9725 201.82 257.3125 202.5 C256.9825 203.16 256.6525 203.82 256.3125 204.5 C256.2222311 208.54355229 256.45818095 212.58477971 256.625 216.625 C256.66044922 217.74132812 256.69589844 218.85765625 256.73242188 220.0078125 C256.97528148 226.15542277 257.6642335 231.58331429 259.3125 237.5 C260.60738379 248.02469497 257.74780671 259.06186528 251.71875 267.79296875 C244.10113153 277.03991117 233.93578516 280.80596801 222.3125 282.5 C194.71461401 284.25868881 166.27170266 277.36450193 139.39892578 271.70556641 C118.61604307 267.36565361 96.80199423 268.15619819 76.3125 273.5 C75.11109375 273.79648437 73.9096875 274.09296875 72.671875 274.3984375 C70.74938069 274.87669347 68.83018318 275.36888761 66.91796875 275.88671875 C52.70057226 279.23324236 34.41414125 279.93338883 20.73046875 274.375 C17.14322139 273.07686848 14.56616622 273.02221152 10.99609375 274.3828125 C6.13666651 277.07028704 2.6768187 279.25738026 0.3125 284.5 C-0.32034257 291.03937326 1.10624122 296.7027466 3.078125 302.91015625 C4.35794572 306.96919551 5.38207901 310.48258345 5.4375 314.75 C5.9731472 321.85370213 11.39601037 327.82862174 15.3125 333.5 C16.55033765 335.97567529 16.46993626 337.71288409 16.5234375 340.48046875 C16.55179688 341.48013672 16.58015625 342.47980469 16.609375 343.50976562 C16.66097404 345.60855659 16.7053842 347.70753808 16.7421875 349.80664062 C16.92396994 355.71835698 17.22739548 360.37429944 20.3125 365.5 C22.30670826 367.00668647 22.30670826 367.00668647 24.8125 367.625 C26.27236328 368.07552734 26.27236328 368.07552734 27.76171875 368.53515625 C28.93347656 368.85355469 30.10523438 369.17195313 31.3125 369.5 C32.02100098 369.69835449 32.72950195 369.89670898 33.45947266 370.10107422 C41.37924491 372.31245007 49.3062739 374.34251926 57.375 375.9375 C73.10338753 379.20501713 92.36201682 384.43191121 101.73046875 398.65234375 C104.93033234 404.85568941 105.51745364 410.35790645 105.5625 417.25 C105.5934375 418.41015625 105.5934375 418.41015625 105.625 419.59375 C105.69113042 429.44718293 101.43131615 438.8124265 94.8359375 446.140625 C88.655234 451.6272388 82.59376883 453.17514211 74.5234375 452.9921875 C68.14824635 452.01496842 62.57927157 448.88132219 57.41015625 445.11328125 C56.3125 443.5 56.3125 443.5 56.31640625 441.0390625 C57.62593318 437.70105267 59.23883589 436.76723799 62.25 434.875 C65.46892304 432.82785758 67.16929878 431.71480183 69.3125 428.5 C69.69754888 425.4927195 69.54767735 423.93481342 68.09765625 421.25390625 C62.02658606 413.53084417 54.98044954 408.00445163 45.3125 405.5 C41.4087084 405.04909948 37.55171373 405.02577663 33.625 405.0625 C32.50738281 405.06789795 31.38976562 405.0732959 30.23828125 405.07885742 C-1.13803278 405.4638779 -1.13803278 405.4638779 -28.6875 418.5 C-31.94603887 422.32524128 -34.80335346 426.38897809 -37.6875 430.5 C-39.31681799 432.70006133 -40.9707139 434.88117876 -42.625 437.0625 C-48.03075392 443.97552999 -48.03075392 443.97552999 -48.6875 452.5 C-47.65200862 455.110878 -46.60505106 457.46780423 -45.3125 459.9375 C-41.59619874 467.16615916 -38.90273746 474.18151703 -39.6875 482.5 C-41.18285292 485.9891568 -42.93044258 487.72110771 -45.9375 489.875 C-46.845 490.74125 -47.7525 491.6075 -48.6875 492.5 C-48.40364727 497.48252139 -47.02178951 501.87705245 -45.375 506.5625 C-31.34092299 547.42822607 -31.34092299 547.42822607 -40.6875 568.5 C-42.21631886 572.3605888 -43.60398453 576.12096823 -44.5 580.1875 C-45.7993853 583.81210111 -47.15276848 584.78322614 -50.18359375 586.99609375 C-52.64317746 589.45567746 -53.37397232 592.52178023 -54.33984375 595.8046875 C-55.98382829 599.09265658 -58.14504612 601.03710018 -60.78149414 603.55859375 C-64.07673331 606.91503565 -66.7092629 610.74273524 -69.4375 614.5625 C-70.66899174 616.25766023 -71.90207874 617.95166263 -73.13671875 619.64453125 C-73.73919434 620.47162598 -74.34166992 621.2987207 -74.96240234 622.15087891 C-84.37712978 634.97121677 -94.7492668 646.98177111 -105.4375 658.75 C-108.42613253 662.04292966 -111.27133605 665.41316769 -114.0625 668.875 C-117.25672507 672.82896263 -120.58963177 676.60386131 -124.0625 680.3125 C-128.13056418 684.67437281 -131.94261706 689.1827307 -135.625 693.875 C-136.07343262 694.44581299 -136.52186523 695.01662598 -136.98388672 695.60473633 C-142.64775028 702.91174038 -147.36249734 709.13466396 -147.12109375 718.69140625 C-145.60274318 728.52648784 -138.9143739 737.01349392 -131.6875 743.5 C-128.71523096 745.54095807 -125.67761075 747.4436855 -122.62109375 749.35546875 C-118.53727133 752.34084626 -115.71934048 755.94260436 -112.72265625 759.984375 C-110.60772071 762.59861394 -108.30881649 764.41426811 -105.6875 766.5 C-104.64127125 768.47620986 -103.63310065 770.4737129 -102.6875 772.5 C-97.51433072 775.08658464 -90.05310396 774.40597674 -84.54345703 772.92285156 C-81.02248101 771.73939696 -77.60418028 770.35472231 -74.18359375 768.91015625 C-69.17567635 766.89020298 -65.51035546 766.43226598 -60.1184082 766.71728516 C-52.48026928 767.07102868 -47.96576548 766.13842984 -41.38671875 761.96875 C-33.61628654 757.74055534 -21.32778502 757.11473691 -12.6875 758.5 C-10.01616748 760.32735723 -8.04425416 762.06396713 -6 764.5625 C-3.52583733 766.63544711 -2.00913504 767.10276559 1.0625 767.9375 C9.13353136 770.15703362 15.81381911 774.28907092 20.3125 781.5 C21.09185655 783.53064181 21.84004357 785.57342512 22.5625 787.625 C24.364851 792.31813475 25.74778976 794.32568536 30.3125 796.5 C31.97437716 797.17851789 33.64054153 797.84671821 35.3125 798.5 C40.32548221 801.69007959 44.09330911 805.97799994 46.3125 811.5 C47.1184515 818.62040629 47.48435175 825.900502 44.3125 832.5 C41.13174456 832.13648509 39.55665573 831.71217781 37.10546875 829.58203125 C33.83381541 827.14316239 30.71940953 826.30011468 26.8125 825.4375 C22.18792604 824.38895798 18.28455224 823.19641239 14.3125 820.5 C13.7246875 822.1396875 13.7246875 822.1396875 13.125 823.8125 C11.77960699 827.56543839 9.87998716 828.79381049 6.3125 830.5 C3.68732334 831.16105485 1.15600333 831.72238171 -1.5 832.1875 C-2.19287109 832.31705078 -2.88574219 832.44660156 -3.59960938 832.58007812 C-5.29394764 832.89557559 -6.99052158 833.19902647 -8.6875 833.5 C-8.26597656 834.38042969 -7.84445312 835.26085937 -7.41015625 836.16796875 C-6.86230469 837.32941406 -6.31445312 838.49085938 -5.75 839.6875 C-4.93208984 841.41033203 -4.93208984 841.41033203 -4.09765625 843.16796875 C-1.7149629 848.79798931 -0.93908164 854.42193578 -1.6875 860.5 C-3 863.0625 -3 863.0625 -5.6875 864.5 C-14.98412547 865.62658501 -24.6169299 863.53164314 -33.78320312 862.10131836 C-36.41668433 861.69074527 -39.05180595 861.29257608 -41.6875 860.89648438 C-69.18315397 856.72189784 -69.18315397 856.72189784 -81.5625 852.3125 C-83.35770563 851.69814445 -85.15329636 851.08491336 -86.94921875 850.47265625 C-87.87782715 850.15312988 -88.80643555 849.83360352 -89.76318359 849.50439453 C-107.55906495 843.39216746 -124.4729489 838.17353404 -143.3125 836.9375 C-144.43140625 836.86015625 -145.5503125 836.7828125 -146.703125 836.703125 C-148.48272312 836.58200052 -150.26413667 836.48090607 -152.046875 836.421875 C-155.53304012 836.01650696 -157.4916364 834.71008237 -159.83984375 832.19140625 C-165.33591919 824.70760009 -167.18251018 817.52993895 -168.6875 808.5 C-169.0175 807.84 -169.3475 807.18 -169.6875 806.5 C-172.95082913 807.86490859 -174.40857158 809.1360358 -176.203125 812.16796875 C-176.64527344 812.89314697 -177.08742188 813.6183252 -177.54296875 814.36547852 C-178.23326172 815.51487915 -178.23326172 815.51487915 -178.9375 816.6875 C-182.89887998 823.02294972 -186.54380194 828.1247683 -192.6875 832.5 C-193.55246094 833.20769531 -194.41742187 833.91539062 -195.30859375 834.64453125 C-201.13337125 839.25749651 -205.16071495 841.73894556 -212.6875 841.5 C-214.6875 839.5 -214.6875 839.5 -214.94140625 836.2890625 C-213.9573353 821.60369595 -205.05264245 807.7886636 -195.546875 797.04516602 C-190.29198927 791.0607417 -186.61207886 784.81057049 -186.375 776.6875 C-186.31892578 775.44033203 -186.31892578 775.44033203 -186.26171875 774.16796875 C-187.22647652 768.12274348 -192.33397087 763.3818039 -196.25 758.875 C-196.7744873 758.26599854 -197.29897461 757.65699707 -197.83935547 757.02954102 C-200.81510666 753.59299086 -203.8468253 750.21988367 -206.94970703 746.89794922 C-231.65976738 720.41719304 -231.65976738 720.41719304 -232.4375 705.5625 C-230.97034185 692.83911215 -221.0749322 683.49799704 -212.0625 675.3125 C-192.1074736 657.16559437 -185.96490068 634.8726782 -182.73583984 608.59130859 C-182.01774433 602.98973292 -180.67886647 598.22554162 -178.47265625 593.0078125 C-176.99255776 588.28033373 -177.37994043 583.39532315 -177.6875 578.5 C-179.29625 577.7575 -179.29625 577.7575 -180.9375 577 C-181.54078125 576.7215625 -182.1440625 576.443125 -182.765625 576.15625 C-184.97992836 575.28457076 -184.97992836 575.28457076 -188.6875 575.5 C-193.17341964 583.20616909 -193.92744922 589.07364187 -193.61328125 597.90625 C-193.79226228 606.57269972 -198.35350423 614.16600423 -204.375 620.1875 C-212.25490294 626.20875262 -221.47061233 625.96430558 -230.96875 626.2890625 C-234.48386063 626.07438484 -234.48386063 626.07438484 -235.6875 627.5 C-235.79641123 628.89672563 -235.84330849 630.2983957 -235.86328125 631.69921875 C-236.14016579 643.07141221 -236.48204156 654.08908312 -241.6875 664.5 C-241.89816813 666.26669211 -242.10459323 668.03407569 -242.28173828 669.80444336 C-243.07591317 677.56585946 -244.49192678 684.32898153 -247.6875 691.5 C-247.95304687 692.10360352 -248.21859375 692.70720703 -248.4921875 693.32910156 C-252.20227159 701.69731114 -256.31426767 709.77909169 -260.8125 717.75 C-268.68093217 731.70589446 -276.1695122 746.16180152 -276.6875 762.5 C-276.71328125 763.15178223 -276.7390625 763.80356445 -276.765625 764.47509766 C-277.52245292 785.79399422 -274.83162308 804.24752633 -262.75244141 822.08666992 C-259.86523293 826.42038047 -257.73546167 830.46557533 -256.0625 835.4375 C-253.71826288 842.21632288 -249.87028713 846.63966245 -244.6875 851.5 C-243.89170532 852.40117554 -243.89170532 852.40117554 -243.07983398 853.32055664 C-239.07568804 857.48083843 -236.19980486 858.95768795 -230.38671875 859.26171875 C-228.04936645 859.27094688 -225.71165402 859.2453698 -223.375 859.1875 C-214.17063025 859.04935771 -207.17961812 859.90276192 -198.6875 863.5 C-193.17957458 865.33049525 -187.47672666 866.27646433 -181.6875 865.5 C-180.6975 864.84 -179.7075 864.18 -178.6875 863.5 C-172.03686251 862.35149634 -166.3382464 864.00817664 -160.6875 867.5 C-158.99741397 868.86738352 -157.33247226 870.26616445 -155.6875 871.6875 C-151.06794923 875.66762142 -146.38744818 878.35570413 -140.9375 881.0625 C-128.02792654 887.61956575 -122.64020023 897.19942027 -117.5078125 910.57421875 C-116.66973303 913.56336884 -116.38796279 916.0893928 -116.375 919.1875 C-116.35824219 920.11949219 -116.34148438 921.05148437 -116.32421875 922.01171875 C-116.6875 924.5 -116.6875 924.5 -117.76953125 926.33203125 C-120.88035639 928.22640338 -123.10102775 927.90904775 -126.6875 927.5 C-130.3556948 926.11309164 -133.7531944 924.2098067 -137.1953125 922.34375 C-142.43137543 919.66838938 -146.80649873 918.62997783 -152.6875 919.5 C-155.19996047 920.4350266 -155.19996047 920.4350266 -157.0625 921.9375 C-162.47185924 925.84425945 -167.15865821 926.00666533 -173.6875 925.5 C-177.43141395 924.75081835 -181.04253206 923.69218155 -184.6875 922.5625 C-185.62722656 922.28470703 -186.56695313 922.00691406 -187.53515625 921.72070312 C-194.2640904 919.7117048 -194.2640904 919.7117048 -196.6875 918.5 C-196.45039307 919.08491211 -196.21328613 919.66982422 -195.96899414 920.27246094 C-194.89326606 922.93054521 -193.82159476 925.59024686 -192.75 928.25 C-192.37681641 929.17039062 -192.00363281 930.09078125 -191.61914062 931.0390625 C-191.26142578 931.92851563 -190.90371094 932.81796875 -190.53515625 933.734375 C-190.0402771 934.95979004 -190.0402771 934.95979004 -189.53540039 936.20996094 C-187.35129376 942.10887259 -186.00612706 949.55641619 -188.546875 955.515625 C-189.76628158 957.3358986 -191.13728209 958.94978209 -192.6875 960.5 C-194.8671875 960.8984375 -194.8671875 960.8984375 -197.6875 960.5 C-199.92039516 958.76588142 -201.8277173 957.10483312 -203.8125 955.125 C-208.74911982 949.70464264 -208.74911982 949.70464264 -215.2878418 947.3840332 C-216.31047119 947.43906006 -217.33310059 947.49408691 -218.38671875 947.55078125 C-219.51400391 947.58880859 -220.64128906 947.62683594 -221.80273438 947.66601562 C-224.16563307 947.76290868 -226.52780522 947.87978435 -228.88867188 948.01757812 C-234.74864587 948.18081788 -238.67218179 948.22069537 -243.20703125 944.2421875 C-244.3869659 943.01348367 -245.54944935 941.76759599 -246.6875 940.5 C-255.32585647 933.12977435 -262.91189098 927.2778187 -274.6875 927.5 C-277.77712097 934.32346077 -280.20433837 941.04159051 -282.1875 948.25 C-283.96582242 954.65379623 -285.83709938 960.64959938 -290.6875 965.5 C-293.59072648 966.10483885 -294.90270202 966.3165949 -297.6875 965.5 C-300.06346831 963.44559131 -302.10398766 961.19285966 -304.22265625 958.875 C-306.80476078 956.38701339 -309.17869054 954.97098627 -312.375 953.375 C-318.5319652 950.2447782 -322.54574279 946.95643825 -324.74734497 940.29153442 C-325.66139465 936.6052798 -325.90667917 933.6138669 -325.85107422 929.83154297 C-325.83801239 928.54424286 -325.82495056 927.25694275 -325.81149292 925.93063354 C-325.80001095 925.24988644 -325.78852898 924.56913933 -325.77669907 923.86776352 C-325.74136762 921.69169098 -325.72113705 919.51592441 -325.7048645 917.33963013 C-325.65653487 911.1538594 -325.58710227 904.96848593 -325.49560547 898.78320312 C-325.10466891 871.34161201 -327.46232379 845.34797214 -334.1875 818.625 C-334.57029099 817.05369683 -334.95179528 815.48207966 -335.33203125 813.91015625 C-337.90767021 803.32603216 -340.69571898 792.80134459 -343.5625 782.29248047 C-351.1664637 754.28424862 -351.1664637 754.28424862 -347.5390625 745.8203125 C-346.06020828 743.2460107 -344.44891687 740.88849725 -342.6875 738.5 C-336.69558293 729.9072748 -331.92198267 722.35359012 -333.6875 711.5 C-335.15784581 706.83869094 -336.95053861 702.33960125 -338.77587891 697.80810547 C-344.27292585 683.89030102 -348.7586901 670.80708266 -348.9375 655.75 C-348.9470874 655.04012939 -348.9566748 654.33025879 -348.96655273 653.59887695 C-348.93638797 648.9189509 -348.11735794 644.99383923 -346.6875 640.5 C-346.1036804 637.4149255 -346.1036804 637.4149255 -346.6875 634.5 C-350.03742758 630.33796877 -354.31481829 627.50086 -358.6875 624.5 C-358.95046875 625.09039063 -359.2134375 625.68078125 -359.484375 626.2890625 C-364.15776173 634.87716928 -373.97832579 638.3785703 -382.6875 641.5 C-384.61773977 642.02733355 -386.55497249 642.5301338 -388.5 643 C-402.71791344 646.61683763 -413.021968 659.43795641 -421.6875 670.5 C-422.30882812 671.24378906 -422.93015625 671.98757813 -423.5703125 672.75390625 C-429.26833711 679.60822455 -434.18398091 686.9703162 -439.1796875 694.33984375 C-488.50357974 767.07802884 -488.50357974 767.07802884 -525.6875 779.5 C-526.68136719 779.83902344 -527.67523437 780.17804687 -528.69921875 780.52734375 C-542.62161941 784.64898214 -556.82291951 782.71133284 -570.6875 779.5 C-571.87472656 779.24476563 -573.06195312 778.98953125 -574.28515625 778.7265625 C-611.11664799 769.98960363 -646.20902709 744.91491265 -666.43237305 712.98168945 C-675.79379605 697.71782396 -682.63943193 680.97105694 -688.75 664.1875 C-693.36560198 651.65343106 -698.5740585 639.76947752 -709.4375 631.375 C-713.14980583 628.28141181 -715.35409159 624.59570999 -716.125 619.75 C-715.57757941 616.93469412 -715.03484399 616.14314079 -712.6875 614.5 C-704.11948043 611.06009881 -693.51986491 611.17637214 -684.75 614.0625 C-670.72656888 620.08149875 -660.5218736 633.11608238 -651.44921875 644.94140625 C-647.86601447 649.59969919 -644.07236156 654.07151279 -640.2421875 658.52734375 C-638.66788525 660.35921533 -637.10739285 662.20319262 -635.5703125 664.06640625 C-628.71244166 672.20496381 -620.63503136 677.75083572 -610.6875 681.5 C-609.635625 681.9125 -608.58375 682.325 -607.5 682.75 C-595.19857994 685.16995149 -584.71090007 683.34863873 -574.0625 676.875 C-552.46599721 661.39943116 -544.35937277 631.14883325 -535.79975891 607.33757019 C-534.27743923 603.10977763 -532.72025565 598.8967743 -531.13671875 594.69140625 C-525.5884397 579.9034314 -520.48564226 565.00330181 -515.53344727 550.00570679 C-505.5498333 519.77825273 -495.28556143 489.71717787 -482.75 460.4375 C-482.45043396 459.7367334 -482.15086792 459.0359668 -481.84222412 458.31396484 C-473.71826334 439.40622916 -464.8755006 420.82153267 -451.84667969 404.77124023 C-448.51436187 400.64299772 -445.51815097 396.38293445 -442.625 391.9375 C-433.77244625 378.39675431 -424.58081423 366.78373368 -411.17944336 357.48706055 C-391.6557519 343.74855123 -377.35011092 324.74252171 -364.375 305 C-358.79421679 296.52418549 -352.21227543 288.9025481 -345.6315918 281.20019531 C-342.54958305 277.57608662 -339.64015075 273.88075579 -336.90625 269.98828125 C-335.6875 268.5 -335.6875 268.5 -332.6875 266.5 C-331.02081964 266.48029263 -329.35336626 266.5068097 -327.6875 266.5625 C-320.92267273 266.05713283 -317.96917774 262.37504385 -313.6171875 257.609375 C-304.96726529 248.17630802 -293.98300886 241.38457145 -282.70117188 235.55419922 C-280.7717077 234.54408449 -278.87986601 233.48228706 -276.984375 232.41015625 C-266.6286005 226.81366534 -255.71034237 224.49014486 -244.29541016 222.07373047 C-224.55480389 217.87381714 -208.25595181 211.4647946 -192.0625 199.19921875 C-187.20295666 195.72240731 -182.55661743 194.70751086 -176.7578125 193.4765625 C-170.35731673 191.4407814 -166.33085081 187.41081038 -162.1875 182.375 C-161.70611572 181.79516357 -161.22473145 181.21532715 -160.72875977 180.61791992 C-156.8342654 175.84217518 -153.6255186 170.92013777 -150.6875 165.5 C-137.05422734 140.54182932 -137.05422734 140.54182932 -129.4375 133.4375 C-124.58931045 128.74811434 -123.40762958 124.13390376 -122.12182617 117.64550781 C-120.409923 109.29126395 -117.53727341 102.08381004 -113.8125 94.4375 C-112.77122527 92.26017117 -111.73214892 90.08178958 -110.6953125 87.90234375 C-109.93528931 86.30966675 -109.93528931 86.30966675 -109.15991211 84.68481445 C-107.71553824 81.56064648 -106.37900146 78.41125744 -105.07421875 75.2265625 C-96.56711689 54.50156096 -84.69310618 35.66407838 -64.6875 24.5 C-63.62789062 23.90316406 -62.56828125 23.30632812 -61.4765625 22.69140625 C-52.515131 17.92359659 -43.4882062 14.99342768 -33.6875 12.5 C-32.93404297 12.30776855 -32.18058594 12.11553711 -31.40429688 11.91748047 C-29.14731615 11.34939362 -26.88764064 10.79508501 -24.625 10.25 C-23.60829224 10.00503784 -23.60829224 10.00503784 -22.57104492 9.75512695 C-19.14998819 8.96383632 -15.7971404 8.38452947 -12.30859375 8.04296875 C-8.55271208 7.90770536 -8.55271208 7.90770536 -6.8125 5.0625 C-6.44125 4.216875 -6.07 3.37125 -5.6875 2.5 C-3.6875 0.5 -3.6875 0.5 0 0 Z " fill="#000000" transform="translate(759.6875,49.5)"/>
</svg>
